<svg width="253" height="34" viewBox="0 0 253 34" fill="none" xmlns="http://www.w3.org/2000/svg">
<path d="M32.28 4.92V33H25.44V16.16L19.16 33H13.64L7.32 16.12V33H0.48V4.92H8.56L16.44 24.36L24.24 4.92H32.28ZM44.0388 14.4C44.8388 13.1733 45.8388 12.2133 47.0388 11.52C48.2388 10.8 49.5721 10.44 51.0388 10.44V17.68H49.1588C47.4521 17.68 46.1721 18.0533 45.3188 18.8C44.4654 19.52 44.0388 20.8 44.0388 22.64V33H37.1988V10.68H44.0388V14.4ZM61.6247 18.92C61.6247 16.1467 62.2247 13.68 63.4247 11.52C64.6247 9.33333 66.2914 7.64 68.4247 6.44C70.5847 5.21333 73.0247 4.6 75.7447 4.6C79.078 4.6 81.9314 5.48 84.3047 7.24C86.678 9 88.2647 11.4 89.0647 14.44H81.5447C80.9847 13.2667 80.1847 12.3733 79.1447 11.76C78.1314 11.1467 76.9714 10.84 75.6647 10.84C73.558 10.84 71.8514 11.5733 70.5447 13.04C69.238 14.5067 68.5847 16.4667 68.5847 18.92C68.5847 21.3733 69.238 23.3333 70.5447 24.8C71.8514 26.2667 73.558 27 75.6647 27C76.9714 27 78.1314 26.6933 79.1447 26.08C80.1847 25.4667 80.9847 24.5733 81.5447 23.4H89.0647C88.2647 26.44 86.678 28.84 84.3047 30.6C81.9314 32.3333 79.078 33.2 75.7447 33.2C73.0247 33.2 70.5847 32.6 68.4247 31.4C66.2914 30.1733 64.6247 28.48 63.4247 26.32C62.2247 24.16 61.6247 21.6933 61.6247 18.92ZM103.413 33.32C101.227 33.32 99.2534 32.8533 97.4934 31.92C95.7601 30.9867 94.3868 29.6533 93.3734 27.92C92.3868 26.1867 91.8934 24.16 91.8934 21.84C91.8934 19.5467 92.4001 17.5333 93.4134 15.8C94.4268 14.04 95.8134 12.6933 97.5734 11.76C99.3334 10.8267 101.307 10.36 103.493 10.36C105.68 10.36 107.653 10.8267 109.413 11.76C111.173 12.6933 112.56 14.04 113.573 15.8C114.587 17.5333 115.093 19.5467 115.093 21.84C115.093 24.1333 114.573 26.16 113.533 27.92C112.52 29.6533 111.12 30.9867 109.333 31.92C107.573 32.8533 105.6 33.32 103.413 33.32ZM103.413 27.4C104.72 27.4 105.827 26.92 106.733 25.96C107.667 25 108.133 23.6267 108.133 21.84C108.133 20.0533 107.68 18.68 106.773 17.72C105.893 16.76 104.8 16.28 103.493 16.28C102.16 16.28 101.053 16.76 100.173 17.72C99.2934 18.6533 98.8534 20.0267 98.8534 21.84C98.8534 23.6267 99.2801 25 100.133 25.96C101.013 26.92 102.107 27.4 103.413 27.4ZM117.362 21.84C117.362 19.52 117.829 17.4933 118.762 15.76C119.722 14.0267 121.042 12.6933 122.722 11.76C124.429 10.8267 126.376 10.36 128.562 10.36C131.362 10.36 133.696 11.0933 135.562 12.56C137.456 14.0267 138.696 16.0933 139.282 18.76H132.002C131.389 17.0533 130.202 16.2 128.442 16.2C127.189 16.2 126.189 16.6933 125.442 17.68C124.696 18.64 124.322 20.0267 124.322 21.84C124.322 23.6533 124.696 25.0533 125.442 26.04C126.189 27 127.189 27.48 128.442 27.48C130.202 27.48 131.389 26.6267 132.002 24.92H139.282C138.696 27.5333 137.456 29.5867 135.562 31.08C133.669 32.5733 131.336 33.32 128.562 33.32C126.376 33.32 124.429 32.8533 122.722 31.92C121.042 30.9867 119.722 29.6533 118.762 27.92C117.829 26.1867 117.362 24.16 117.362 21.84ZM156.581 33L149.781 23.64V33H142.941V3.4H149.781V19.76L156.541 10.68H164.981L155.701 21.88L165.061 33H156.581ZM180.108 27.2V33H176.628C174.148 33 172.214 32.4 170.828 31.2C169.441 29.9733 168.748 27.9867 168.748 25.24V16.36H166.028V10.68H168.748V5.24H175.588V10.68H180.068V16.36H175.588V25.32C175.588 25.9867 175.748 26.4667 176.068 26.76C176.388 27.0533 176.921 27.2 177.668 27.2H180.108ZM182.558 21.8C182.558 19.5067 182.984 17.4933 183.838 15.76C184.718 14.0267 185.904 12.6933 187.398 11.76C188.891 10.8267 190.558 10.36 192.398 10.36C193.971 10.36 195.344 10.68 196.518 11.32C197.718 11.96 198.638 12.8 199.278 13.84V10.68H206.118V33H199.278V29.84C198.611 30.88 197.678 31.72 196.478 32.36C195.304 33 193.931 33.32 192.358 33.32C190.544 33.32 188.891 32.8533 187.398 31.92C185.904 30.96 184.718 29.6133 183.838 27.88C182.984 26.12 182.558 24.0933 182.558 21.8ZM199.278 21.84C199.278 20.1333 198.798 18.7867 197.838 17.8C196.904 16.8133 195.758 16.32 194.398 16.32C193.038 16.32 191.878 16.8133 190.918 17.8C189.984 18.76 189.518 20.0933 189.518 21.8C189.518 23.5067 189.984 24.8667 190.918 25.88C191.878 26.8667 193.038 27.36 194.398 27.36C195.758 27.36 196.904 26.8667 197.838 25.88C198.798 24.8933 199.278 23.5467 199.278 21.84ZM214.506 8.36C213.306 8.36 212.319 8.01333 211.546 7.32C210.799 6.6 210.426 5.72 210.426 4.68C210.426 3.61333 210.799 2.73333 211.546 2.04C212.319 1.32 213.306 0.959998 214.506 0.959998C215.679 0.959998 216.639 1.32 217.386 2.04C218.159 2.73333 218.546 3.61333 218.546 4.68C218.546 5.72 218.159 6.6 217.386 7.32C216.639 8.01333 215.679 8.36 214.506 8.36ZM217.906 10.68V33H211.066V10.68H217.906ZM229.703 3.4V33H222.863V3.4H229.703ZM243.74 33.32C241.793 33.32 240.06 32.9867 238.54 32.32C237.02 31.6533 235.82 30.7467 234.94 29.6C234.06 28.4267 233.566 27.12 233.46 25.68H240.22C240.3 26.4533 240.66 27.08 241.3 27.56C241.94 28.04 242.726 28.28 243.66 28.28C244.513 28.28 245.166 28.12 245.62 27.8C246.1 27.4533 246.34 27.0133 246.34 26.48C246.34 25.84 246.006 25.3733 245.34 25.08C244.673 24.76 243.593 24.4133 242.1 24.04C240.5 23.6667 239.166 23.28 238.1 22.88C237.033 22.4533 236.113 21.8 235.34 20.92C234.566 20.0133 234.18 18.8 234.18 17.28C234.18 16 234.526 14.84 235.22 13.8C235.94 12.7333 236.98 11.8933 238.34 11.28C239.726 10.6667 241.366 10.36 243.26 10.36C246.06 10.36 248.26 11.0533 249.86 12.44C251.486 13.8267 252.42 15.6667 252.66 17.96H246.34C246.233 17.1867 245.886 16.5733 245.3 16.12C244.74 15.6667 243.993 15.44 243.06 15.44C242.26 15.44 241.646 15.6 241.22 15.92C240.793 16.2133 240.58 16.6267 240.58 17.16C240.58 17.8 240.913 18.28 241.58 18.6C242.273 18.92 243.34 19.24 244.78 19.56C246.433 19.9867 247.78 20.4133 248.82 20.84C249.86 21.24 250.766 21.9067 251.54 22.84C252.34 23.7467 252.753 24.9733 252.78 26.52C252.78 27.8267 252.406 29 251.66 30.04C250.94 31.0533 249.886 31.8533 248.5 32.44C247.14 33.0267 245.553 33.32 243.74 33.32Z" fill="white"/>
</svg>
